<?xml version="1.0" standalone="no"?>
<!DOCTYPE svg PUBLIC "-//W3C//DTD SVG 20010904//EN"
 "http://www.w3.org/TR/2001/REC-SVG-20010904/DTD/svg10.dtd">
<svg version="1.0" xmlns="http://www.w3.org/2000/svg"
 width="575.000000pt" height="633.000000pt" viewBox="0 0 575.000000 633.000000"
 preserveAspectRatio="xMidYMid meet">

<g transform="translate(0.000000,633.000000) scale(0.100000,-0.100000)"
fill="#000000" stroke="none">
<path d="M3648 5970 c-212 -27 -408 -101 -592 -224 -50 -33 -112 -81 -138
-107 -26 -26 -51 -49 -55 -50 -5 -2 -38 -35 -74 -74 -168 -181 -278 -389 -336
-633 -25 -107 -27 -134 -27 -322 0 -222 10 -303 60 -455 70 -217 183 -394 367
-577 70 -70 127 -130 127 -133 0 -4 -24 -34 -53 -69 -29 -34 -81 -105 -117
-157 l-65 -96 -75 -21 c-42 -12 -80 -22 -85 -22 -5 0 -73 64 -151 142 l-143
141 -35 -26 c-19 -15 -38 -27 -43 -27 -4 0 -158 150 -341 333 -313 313 -333
335 -326 361 7 28 9 26 125 -90 116 -116 119 -118 119 -87 0 34 21 53 59 53
20 0 21 4 15 54 -5 39 -2 59 9 77 8 13 22 47 31 76 10 28 24 54 32 57 14 6 18
44 8 83 -4 15 -13 22 -26 20 -11 -1 -24 5 -29 13 -4 8 -31 103 -59 210 -58
217 -70 239 -119 222 l-31 -11 -14 52 c-9 29 -24 86 -35 127 -10 41 -45 170
-76 285 -31 116 -69 259 -85 319 l-29 108 31 39 c17 22 37 39 45 39 14 0 16
13 7 57 -4 20 -15 33 -37 42 -18 7 -42 17 -53 23 -27 13 -87 -5 -125 -37 -15
-12 -66 -32 -115 -44 -128 -33 -118 -29 -103 -47 7 -9 14 -43 15 -77 0 -34 13
-107 28 -162 15 -55 40 -147 56 -205 40 -144 37 -220 -8 -278 -28 -35 -44 -45
-110 -64 -94 -29 -102 -41 -105 -165 -2 -72 3 -106 27 -188 16 -55 35 -108 44
-117 29 -34 9 -48 -73 -48 -61 0 -85 -5 -125 -25 -97 -49 -143 -107 -184 -232
-9 -28 -22 -56 -29 -60 -7 -5 -52 -20 -100 -34 -85 -23 -88 -25 -82 -49 4 -14
19 -36 35 -50 19 -16 46 -66 78 -145 77 -188 84 -200 110 -197 15 2 25 -4 34
-22 7 -16 19 -26 32 -26 16 0 28 -16 53 -73 31 -68 224 -513 373 -857 100
-231 116 -261 160 -307 63 -65 110 -83 213 -83 66 0 87 -3 87 -13 0 -8 -25
-36 -55 -62 -30 -27 -55 -54 -55 -61 0 -18 35 -44 61 -44 35 0 71 -25 165
-117 30 -29 59 -53 65 -53 6 0 27 -13 46 -30 37 -33 53 -36 83 -18 15 10 22 9
37 -4 10 -8 28 -19 40 -22 13 -4 26 -18 29 -32 l6 -25 24 22 24 22 43 -31 c24
-17 56 -34 70 -37 15 -4 30 -11 33 -16 8 -13 -24 -167 -47 -229 -16 -41 -25
-102 -35 -235 -24 -318 -27 -396 -19 -587 l7 -187 33 -11 c22 -7 129 -10 302
-9 l268 2 -3 75 c-2 47 1 84 9 98 9 18 9 27 1 37 -17 20 -14 327 4 502 8 77
17 165 20 195 8 84 13 99 34 110 16 9 29 6 63 -15 24 -14 56 -25 72 -25 15 0
51 -15 79 -33 68 -45 120 -71 186 -95 30 -10 71 -25 90 -33 41 -15 130 -15
192 1 32 9 61 30 115 83 65 63 74 77 84 126 14 67 6 158 -21 237 -11 33 -20
68 -20 79 0 12 -5 26 -11 32 -6 6 -11 30 -11 54 1 29 -6 51 -23 73 -15 21 -25
52 -30 94 -4 34 -11 64 -15 67 -5 3 -14 31 -20 63 -7 31 -16 66 -21 77 -4 11
-21 70 -38 130 -16 61 -55 202 -86 315 -32 113 -60 215 -62 227 -7 32 40 94
162 211 82 79 111 102 123 95 10 -4 124 -8 255 -8 l237 -1 41 -62 c46 -70 135
-164 195 -205 103 -70 275 -94 389 -54 60 20 139 83 178 139 38 57 38 156 1
243 -14 33 -46 109 -70 169 l-45 108 77 82 c43 44 86 90 97 101 45 48 134 187
174 271 24 51 50 95 58 98 10 3 15 19 15 42 0 20 9 67 20 104 64 216 66 526 4
769 -13 52 -24 106 -24 120 0 13 -7 29 -16 35 -8 7 -26 38 -39 69 -88 218
-348 503 -583 641 -128 74 -276 131 -427 162 -83 18 -410 27 -507 14z m-133
-525 c264 -93 359 -198 372 -415 6 -110 -8 -158 -57 -182 -32 -16 -47 -16
-195 -3 -88 8 -198 15 -245 15 -268 1 -503 107 -517 232 -5 39 0 53 45 128 47
80 131 173 180 199 21 11 22 10 22 -22 0 -40 33 -87 61 -87 49 0 109 55 109
99 0 11 -12 29 -26 40 -39 31 -22 41 64 37 58 -2 104 -12 187 -41z m1199 -4
c184 -65 363 -298 316 -411 -47 -114 -281 -199 -550 -201 -63 0 -148 -4 -188
-8 -40 -4 -75 -5 -77 -2 -3 2 3 13 12 23 27 30 22 86 -11 114 -36 31 -77 30
-115 -2 -42 -35 -41 -68 5 -110 l35 -34 -31 0 c-73 0 -101 80 -82 233 14 110
46 182 108 242 57 54 110 81 264 134 136 47 225 53 314 22z m-3260 -527 c22
-71 23 -72 39 -52 6 9 22 19 33 22 19 6 23 1 33 -39 10 -38 9 -49 -5 -70 -9
-14 -25 -25 -35 -25 -23 0 -24 -20 -4 -86 19 -62 19 -84 0 -84 -16 0 -21 16
-80 243 -19 76 -33 143 -29 148 12 21 30 0 48 -57z m-236 -170 c36 -10 74 -85
80 -159 7 -87 -2 -96 -89 -94 -61 2 -72 5 -117 40 -40 30 -52 34 -56 22 -10
-25 -7 -32 34 -77 52 -56 103 -72 185 -57 32 6 64 11 71 11 24 0 -6 -63 -48
-103 -36 -34 -44 -38 -89 -36 -40 2 -52 7 -66 28 -9 14 -24 34 -33 44 -9 9
-29 42 -44 72 -26 51 -27 58 -21 147 4 51 13 103 21 116 26 40 109 63 172 46z
m450 -286 c17 -68 40 -153 51 -190 11 -39 16 -70 10 -73 -12 -8 -22 19 -69
200 -42 162 -46 185 -31 185 5 0 22 -55 39 -122z m1907 4 c71 -36 247 -89 345
-106 214 -35 296 -39 501 -21 243 21 445 49 573 80 76 19 102 22 107 13 7 -12
3 -85 -7 -116 -7 -25 -75 -43 -272 -72 -430 -64 -926 -57 -1117 14 -102 39
-218 103 -255 141 -35 36 -40 62 -24 137 l5 28 52 -39 c29 -21 70 -48 92 -59z
m-1999 -260 c39 -136 45 -165 33 -173 -24 -15 -37 -10 -32 11 3 12 -1 28 -9
38 -8 9 -29 70 -46 134 -26 98 -30 122 -20 143 6 14 15 22 19 18 4 -5 29 -82
55 -171z m-234 -147 c0 -5 -5 -11 -11 -13 -6 -2 -11 4 -11 13 0 9 5 15 11 13
6 -2 11 -8 11 -13z m482 -43 c2 -4 7 -24 11 -45 6 -30 4 -37 -9 -37 -9 0 -19
-7 -22 -15 -9 -23 -21 -9 -28 32 -4 21 -9 46 -12 56 -4 13 1 17 25 17 16 0 32
-3 35 -8z m-317 -513 c97 -89 122 -120 123 -150 0 -9 7 -22 15 -29 10 -9 15
-32 15 -77 0 -61 -2 -65 -40 -103 -23 -22 -43 -40 -45 -40 -2 0 -9 17 -15 38
-16 49 -74 176 -127 279 -24 46 -43 91 -43 101 0 10 -3 21 -6 25 -3 3 -17 29
-30 57 l-24 52 40 -32 c22 -18 84 -72 137 -121z m369 -104 c42 -45 72 -59 60
-29 -4 10 1 25 11 36 16 18 18 17 55 -19 44 -43 51 -85 17 -104 -21 -11 -19
-13 35 -68 31 -31 56 -62 56 -68 0 -38 -36 -12 -171 123 -133 133 -147 150
-132 162 23 17 21 18 69 -33z m619 -503 c-2 -2 -6 -4 -10 -4 -14 -1 -294 285
-288 295 3 5 72 -57 154 -139 82 -81 147 -150 144 -152z m-644 197 c84 -50
109 -91 84 -139 -8 -16 -19 -30 -24 -30 -5 0 -22 -14 -39 -31 l-31 -32 -81 11
c-44 5 -87 15 -95 22 -21 17 -38 88 -31 129 8 50 74 101 140 110 6 0 40 -17
77 -40z m519 -283 c115 -116 115 -116 95 -136 -20 -20 -20 -20 -137 98 -97 98
-117 123 -121 155 l-6 38 27 -20 c15 -11 79 -72 142 -135z m-342 86 c4 -12
-65 -48 -74 -39 -2 2 7 16 21 31 25 28 45 30 53 8z m685 -194 c-13 -14 -13
-20 -3 -33 30 -36 -10 -11 -54 34 l-48 49 28 15 c28 15 30 14 61 -16 31 -29
32 -32 16 -49z m-498 -128 c3 -5 1 -10 -4 -10 -6 0 -11 5 -11 10 0 6 2 10 4
10 3 0 8 -4 11 -10z m205 -227 c0 -3 -8 -30 -17 -60 -15 -43 -22 -53 -40 -53
-52 0 -47 76 6 105 28 15 51 19 51 8z"/>
</g>
</svg>
