<?xml version="1.0" encoding="iso-8859-1"?>
<!-- Generator: Adobe Illustrator 16.0.0, SVG Export Plug-In . SVG Version: 6.00 Build 0)  -->
<!DOCTYPE svg PUBLIC "-//W3C//DTD SVG 1.1//EN" "http://www.w3.org/Graphics/SVG/1.1/DTD/svg11.dtd">
<svg version="1.1" id="Capa_1" xmlns="http://www.w3.org/2000/svg" xmlns:xlink="http://www.w3.org/1999/xlink" x="0px" y="0px"
	 width="470.635px" height="470.634px" viewBox="0 0 470.635 470.634" style="enable-background:new 0 0 470.635 470.634;"
	 xml:space="preserve">
<g>
	<g>
		<path d="M135.817,396.216H334.82c1.635,0,2.96-1.325,2.96-2.96V63.429c0-1.636-1.325-2.963-2.96-2.963H135.817
			c-1.635,0-2.963,1.328-2.963,2.963v329.827C132.854,394.891,134.182,396.216,135.817,396.216z M138.78,66.392h193.075v323.898
			H138.78V66.392L138.78,66.392z"/>
		<path d="M170.212,408.023h-5.647l1.445-2.412c0.277-0.478,0.127-1.076-0.34-1.36c-0.479-0.274-1.074-0.133-1.358,0.34
			l-2.432,4.052c-0.175,0.3-0.183,0.671-0.015,0.98l1.919,3.555c0.173,0.335,0.513,0.518,0.869,0.518
			c0.157,0,0.325-0.04,0.475-0.122c0.479-0.259,0.655-0.857,0.394-1.34l-1.209-2.245h5.901c0.546,0,0.99-0.441,0.99-0.99
			C171.203,408.455,170.758,408.023,170.212,408.023z"/>
		<polygon points="233.469,409.313 238.146,409.313 238.146,404.25 233.469,405.062 		"/>
		<polygon points="233.469,414.066 238.146,415.183 238.146,410.13 233.469,410.13 		"/>
		<polygon points="239.118,409.313 245.95,409.313 245.95,403.291 239.118,404.25 		"/>
		<polygon points="239.118,414.812 245.95,416.589 245.95,410.13 239.118,410.13 		"/>
		<path d="M313.219,404.606c-2.59,0-4.697,2.117-4.697,4.707c0,0.863,0.3,1.63,0.7,2.325l-2.854,2.245
			c-0.427,0.34-0.503,0.954-0.162,1.391c0.188,0.244,0.482,0.376,0.771,0.376c0.213,0,0.427-0.071,0.609-0.203l2.986-2.346
			c0.767,0.538,1.645,0.924,2.646,0.924c2.6,0,4.707-2.117,4.707-4.712C317.926,406.723,315.818,404.606,313.219,404.606z
			 M313.219,412.04c-1.498,0-2.728-1.224-2.728-2.732c0-1.508,1.229-2.731,2.728-2.731c1.503,0,2.731,1.224,2.731,2.731
			C315.95,410.816,314.727,412.04,313.219,412.04z"/>
		<path d="M272.94,36.632c1.543,0,2.792,1.252,2.792,2.795c0,1.546-1.249,2.798-2.792,2.798c-1.549,0-2.799-1.252-2.799-2.798
			C270.142,37.884,271.392,36.632,272.94,36.632z"/>
		<path d="M134.964,453.303h200.709c10.35,0,18.759-8.414,18.759-18.764V37.991c0-10.349-8.409-18.763-18.759-18.763H134.964
			c-10.349,0-18.763,8.415-18.763,18.763v396.544C116.201,444.878,124.622,453.303,134.964,453.303z M122.126,37.991
			c0-7.079,5.758-12.837,12.837-12.837h200.709c7.079,0,12.838,5.758,12.838,12.837v396.544c0,7.074-5.759,12.837-12.838,12.837
			H134.964c-7.079,0-12.837-5.763-12.837-12.837V37.991z"/>
		<path d="M355.335,0H115.302c-7.505,0-13.611,6.203-13.611,13.825v442.987c0,7.622,6.106,13.822,13.611,13.822h240.033
			c7.506,0,13.609-6.2,13.609-13.822V13.825C368.944,6.203,362.846,0,355.335,0z M113.54,13.825c0-1.089,0.79-1.976,1.762-1.976
			h240.033c0.97,0,1.762,0.886,1.762,1.976v442.987c0,1.087-0.792,1.976-1.762,1.976H115.302c-0.973,0-1.762-0.889-1.762-1.976
			V13.825L113.54,13.825z"/>
		<path d="M208.782,39.997h49.376c1.087,0,1.975-0.884,1.975-1.973c0-1.092-0.888-1.976-1.975-1.976h-49.376
			c-1.092,0-1.976,0.884-1.976,1.976C206.807,39.113,207.683,39.997,208.782,39.997z"/>
	</g>
</g>
<g>
</g>
<g>
</g>
<g>
</g>
<g>
</g>
<g>
</g>
<g>
</g>
<g>
</g>
<g>
</g>
<g>
</g>
<g>
</g>
<g>
</g>
<g>
</g>
<g>
</g>
<g>
</g>
<g>
</g>
</svg>
